<svg width="362" height="142" viewBox="0 0 362 142" fill="none" xmlns="http://www.w3.org/2000/svg">
<rect x="80" y="17.6777" width="25" height="5" rx="2.5" transform="rotate(-45 80 17.6777)" fill="#CB6262"/>
<rect x="97.6777" y="21.2134" width="25" height="5" rx="2.5" transform="rotate(-135 97.6777 21.2134)" fill="#CB6262"/>
<rect x="80" y="37.6777" width="25" height="5" rx="2.5" transform="rotate(-45 80 37.6777)" fill="#CB6262"/>
<rect x="97.6777" y="41.2134" width="25" height="5" rx="2.5" transform="rotate(-135 97.6777 41.2134)" fill="#CB6262"/>
<rect x="80" y="57.6777" width="25" height="5" rx="2.5" transform="rotate(-45 80 57.6777)" fill="#CB6262"/>
<rect x="97.6777" y="61.2134" width="25" height="5" rx="2.5" transform="rotate(-135 97.6777 61.2134)" fill="#CB6262"/>
<rect x="80" y="97.6777" width="25" height="5" rx="2.5" transform="rotate(-45 80 97.6777)" fill="#CB6262"/>
<rect x="97.6777" y="101.213" width="25" height="5" rx="2.5" transform="rotate(-135 97.6777 101.213)" fill="#CB6262"/>
<rect x="80" y="137.678" width="25" height="5" rx="2.5" transform="rotate(-45 80 137.678)" fill="#CB6262"/>
<rect x="97.6777" y="141.213" width="25" height="5" rx="2.5" transform="rotate(-135 97.6777 141.213)" fill="#CB6262"/>
<rect x="80" y="117.678" width="25" height="5" rx="2.5" transform="rotate(-45 80 117.678)" fill="#CB6262"/>
<rect x="97.6777" y="121.213" width="25" height="5" rx="2.5" transform="rotate(-135 97.6777 121.213)" fill="#CB6262"/>
<rect x="60" y="37.6777" width="25" height="5" rx="2.5" transform="rotate(-45 60 37.6777)" fill="#CB6262"/>
<rect x="77.6777" y="42.2134" width="25" height="5" rx="2.5" transform="rotate(-135 77.6777 42.2134)" fill="#CB6262"/>
<rect x="60" y="57.6777" width="25" height="5" rx="2.5" transform="rotate(-45 60 57.6777)" fill="#CB6262"/>
<rect x="77.6777" y="61.2134" width="25" height="5" rx="2.5" transform="rotate(-135 77.6777 61.2134)" fill="#CB6262"/>
<rect x="60" y="97.6777" width="25" height="5" rx="2.5" transform="rotate(-45 60 97.6777)" fill="#CB6262"/>
<rect x="77.6777" y="101.213" width="25" height="5" rx="2.5" transform="rotate(-135 77.6777 101.213)" fill="#CB6262"/>
<rect x="60" y="117.678" width="25" height="5" rx="2.5" transform="rotate(-45 60 117.678)" fill="#CB6262"/>
<rect x="77.6777" y="121.213" width="25" height="5" rx="2.5" transform="rotate(-135 77.6777 121.213)" fill="#CB6262"/>
<rect x="60" y="77.6777" width="25" height="5" rx="2.5" transform="rotate(-45 60 77.6777)" fill="#CB6262"/>
<rect x="77.6777" y="81.2134" width="25" height="5" rx="2.5" transform="rotate(-135 77.6777 81.2134)" fill="#CB6262"/>
<rect x="40" y="57.6777" width="25" height="5" rx="2.5" transform="rotate(-45 40 57.6777)" fill="#CB6262"/>
<rect x="57.6777" y="61.2134" width="25" height="5" rx="2.5" transform="rotate(-135 57.6777 61.2134)" fill="#CB6262"/>
<rect x="40" y="77.6777" width="25" height="5" rx="2.5" transform="rotate(-45 40 77.6777)" fill="#CB6262"/>
<rect x="57.6777" y="81.2134" width="25" height="5" rx="2.5" transform="rotate(-135 57.6777 81.2134)" fill="#CB6262"/>
<rect x="40" y="97.6777" width="25" height="5" rx="2.5" transform="rotate(-45 40 97.6777)" fill="#CB6262"/>
<rect x="57.6777" y="101.213" width="25" height="5" rx="2.5" transform="rotate(-135 57.6777 101.213)" fill="#CB6262"/>
<rect x="20" y="77.6777" width="25" height="5" rx="2.5" transform="rotate(-45 20 77.6777)" fill="#CB6262"/>
<rect x="37.6777" y="81.2134" width="25" height="5" rx="2.5" transform="rotate(-135 37.6777 81.2134)" fill="#CB6262"/>
<rect x="100" y="17.6777" width="25" height="5" rx="2.5" transform="rotate(-45 100 17.6777)" fill="#CB6262"/>
<rect x="117.678" y="21.2134" width="25" height="5" rx="2.5" transform="rotate(-135 117.678 21.2134)" fill="#CB6262"/>
<rect x="100" y="37.6777" width="25" height="5" rx="2.5" transform="rotate(-45 100 37.6777)" fill="#CB6262"/>
<rect x="117.678" y="41.2134" width="25" height="5" rx="2.5" transform="rotate(-135 117.678 41.2134)" fill="#CB6262"/>
<rect x="100" y="117.678" width="25" height="5" rx="2.5" transform="rotate(-45 100 117.678)" fill="#CB6262"/>
<rect x="117.678" y="121.213" width="25" height="5" rx="2.5" transform="rotate(-135 117.678 121.213)" fill="#CB6262"/>
<rect x="100" y="137.678" width="25" height="5" rx="2.5" transform="rotate(-45 100 137.678)" fill="#CB6262"/>
<rect x="117.678" y="141.213" width="25" height="5" rx="2.5" transform="rotate(-135 117.678 141.213)" fill="#CB6262"/>
<rect width="25" height="5" rx="2.5" transform="matrix(-0.707107 -0.707107 -0.707107 0.707107 141.213 17.6777)" fill="#CB6262"/>
<rect width="25" height="5" rx="2.5" transform="matrix(0.707107 -0.707107 -0.707107 -0.707107 123.536 21.2134)" fill="#CB6262"/>
<rect width="25" height="5" rx="2.5" transform="matrix(-0.707107 -0.707107 -0.707107 0.707107 141.213 37.6777)" fill="#CB6262"/>
<rect width="25" height="5" rx="2.5" transform="matrix(0.707107 -0.707107 -0.707107 -0.707107 123.536 41.2134)" fill="#CB6262"/>
<rect width="25" height="5" rx="2.5" transform="matrix(-0.707107 -0.707107 -0.707107 0.707107 141.213 57.6777)" fill="#CB6262"/>
<rect width="25" height="5" rx="2.5" transform="matrix(0.707107 -0.707107 -0.707107 -0.707107 123.536 61.2134)" fill="#CB6262"/>
<rect width="25" height="5" rx="2.5" transform="matrix(-0.707107 -0.707107 -0.707107 0.707107 141.213 97.6777)" fill="#CB6262"/>
<rect width="25" height="5" rx="2.5" transform="matrix(0.707107 -0.707107 -0.707107 -0.707107 123.536 101.213)" fill="#CB6262"/>
<rect width="25" height="5" rx="2.5" transform="matrix(-0.707107 -0.707107 -0.707107 0.707107 141.213 137.678)" fill="#CB6262"/>
<rect width="25" height="5" rx="2.5" transform="matrix(0.707107 -0.707107 -0.707107 -0.707107 123.536 141.213)" fill="#CB6262"/>
<rect width="25" height="5" rx="2.5" transform="matrix(-0.707107 -0.707107 -0.707107 0.707107 141.213 117.678)" fill="#CB6262"/>
<rect width="25" height="5" rx="2.5" transform="matrix(0.707107 -0.707107 -0.707107 -0.707107 123.536 121.213)" fill="#CB6262"/>
<rect width="25" height="5" rx="2.5" transform="matrix(-0.707107 -0.707107 -0.707107 0.707107 161.213 37.6777)" fill="#CB6262"/>
<rect width="25" height="5" rx="2.5" transform="matrix(0.707107 -0.707107 -0.707107 -0.707107 143.536 41.2134)" fill="#CB6262"/>
<rect width="25" height="5" rx="2.5" transform="matrix(-0.707107 -0.707107 -0.707107 0.707107 161.213 57.6777)" fill="#CB6262"/>
<rect width="25" height="5" rx="2.5" transform="matrix(0.707107 -0.707107 -0.707107 -0.707107 143.536 61.2134)" fill="#CB6262"/>
<rect width="25" height="5" rx="2.5" transform="matrix(-0.707107 -0.707107 -0.707107 0.707107 161.213 97.6777)" fill="#CB6262"/>
<rect width="25" height="5" rx="2.5" transform="matrix(0.707107 -0.707107 -0.707107 -0.707107 143.536 101.213)" fill="#CB6262"/>
<rect width="25" height="5" rx="2.5" transform="matrix(-0.707107 -0.707107 -0.707107 0.707107 161.213 117.678)" fill="#CB6262"/>
<rect width="25" height="5" rx="2.5" transform="matrix(0.707107 -0.707107 -0.707107 -0.707107 143.536 121.213)" fill="#CB6262"/>
<rect width="25" height="5" rx="2.5" transform="matrix(-0.707107 -0.707107 -0.707107 0.707107 161.213 77.6777)" fill="#CB6262"/>
<rect width="25" height="5" rx="2.5" transform="matrix(0.707107 -0.707107 -0.707107 -0.707107 143.536 81.2134)" fill="#CB6262"/>
<rect width="25" height="5" rx="2.5" transform="matrix(-0.707107 -0.707107 -0.707107 0.707107 181.213 57.6777)" fill="#CB6262"/>
<rect width="25" height="5" rx="2.5" transform="matrix(0.707107 -0.707107 -0.707107 -0.707107 163.536 61.2134)" fill="#CB6262"/>
<rect width="25" height="5" rx="2.5" transform="matrix(-0.707107 -0.707107 -0.707107 0.707107 181.213 77.6777)" fill="#CB6262"/>
<rect width="25" height="5" rx="2.5" transform="matrix(0.707107 -0.707107 -0.707107 -0.707107 163.536 81.2134)" fill="#CB6262"/>
<rect width="25" height="5" rx="2.5" transform="matrix(-0.707107 -0.707107 -0.707107 0.707107 181.213 97.6777)" fill="#CB6262"/>
<rect width="25" height="5" rx="2.5" transform="matrix(0.707107 -0.707107 -0.707107 -0.707107 163.536 101.213)" fill="#CB6262"/>
<rect width="25" height="5" rx="2.5" transform="matrix(-0.707107 -0.707107 -0.707107 0.707107 201.213 77.6777)" fill="#CB6262"/>
<rect width="25" height="5" rx="2.5" transform="matrix(0.707107 -0.707107 -0.707107 -0.707107 183.536 81.2134)" fill="#CB6262"/>
<rect x="200" y="17.6777" width="25" height="5" rx="2.5" transform="rotate(-45 200 17.6777)" fill="#CB6262"/>
<rect x="217.678" y="21.2134" width="25" height="5" rx="2.5" transform="rotate(-135 217.678 21.2134)" fill="#CB6262"/>
<rect x="200" y="37.6777" width="25" height="5" rx="2.5" transform="rotate(-45 200 37.6777)" fill="#CB6262"/>
<rect x="217.678" y="41.2134" width="25" height="5" rx="2.5" transform="rotate(-135 217.678 41.2134)" fill="#CB6262"/>
<rect x="200" y="57.6777" width="25" height="5" rx="2.5" transform="rotate(-45 200 57.6777)" fill="#CB6262"/>
<rect x="217.678" y="61.2134" width="25" height="5" rx="2.5" transform="rotate(-135 217.678 61.2134)" fill="#CB6262"/>
<rect x="200" y="97.6777" width="25" height="5" rx="2.5" transform="rotate(-45 200 97.6777)" fill="#CB6262"/>
<rect x="217.678" y="101.213" width="25" height="5" rx="2.5" transform="rotate(-135 217.678 101.213)" fill="#CB6262"/>
<rect x="200" y="137.678" width="25" height="5" rx="2.5" transform="rotate(-45 200 137.678)" fill="#CB6262"/>
<rect x="217.678" y="141.213" width="25" height="5" rx="2.5" transform="rotate(-135 217.678 141.213)" fill="#CB6262"/>
<rect x="200" y="117.678" width="25" height="5" rx="2.5" transform="rotate(-45 200 117.678)" fill="#CB6262"/>
<rect x="217.678" y="121.213" width="25" height="5" rx="2.5" transform="rotate(-135 217.678 121.213)" fill="#CB6262"/>
<rect x="180" y="37.6777" width="25" height="5" rx="2.5" transform="rotate(-45 180 37.6777)" fill="#CB6262"/>
<rect x="197.678" y="41.2134" width="25" height="5" rx="2.5" transform="rotate(-135 197.678 41.2134)" fill="#CB6262"/>
<rect x="180" y="57.6777" width="25" height="5" rx="2.5" transform="rotate(-45 180 57.6777)" fill="#CB6262"/>
<rect x="197.678" y="61.2134" width="25" height="5" rx="2.5" transform="rotate(-135 197.678 61.2134)" fill="#CB6262"/>
<rect x="180" y="97.6777" width="25" height="5" rx="2.5" transform="rotate(-45 180 97.6777)" fill="#CB6262"/>
<rect x="197.678" y="101.213" width="25" height="5" rx="2.5" transform="rotate(-135 197.678 101.213)" fill="#CB6262"/>
<rect x="180" y="117.678" width="25" height="5" rx="2.5" transform="rotate(-45 180 117.678)" fill="#CB6262"/>
<rect x="197.678" y="121.213" width="25" height="5" rx="2.5" transform="rotate(-135 197.678 121.213)" fill="#CB6262"/>
<rect x="220" y="17.6777" width="25" height="5" rx="2.5" transform="rotate(-45 220 17.6777)" fill="#CB6262"/>
<rect x="237.678" y="21.2134" width="25" height="5" rx="2.5" transform="rotate(-135 237.678 21.2134)" fill="#CB6262"/>
<rect x="220" y="37.6777" width="25" height="5" rx="2.5" transform="rotate(-45 220 37.6777)" fill="#CB6262"/>
<rect x="237.678" y="41.2134" width="25" height="5" rx="2.5" transform="rotate(-135 237.678 41.2134)" fill="#CB6262"/>
<rect x="220" y="117.678" width="25" height="5" rx="2.5" transform="rotate(-45 220 117.678)" fill="#CB6262"/>
<rect x="237.678" y="121.213" width="25" height="5" rx="2.5" transform="rotate(-135 237.678 121.213)" fill="#CB6262"/>
<rect x="220" y="137.678" width="25" height="5" rx="2.5" transform="rotate(-45 220 137.678)" fill="#CB6262"/>
<rect x="237.678" y="141.213" width="25" height="5" rx="2.5" transform="rotate(-135 237.678 141.213)" fill="#CB6262"/>
<rect width="25" height="5" rx="2.5" transform="matrix(-0.707107 -0.707107 -0.707107 0.707107 261.213 17.6777)" fill="#CB6262"/>
<rect width="25" height="5" rx="2.5" transform="matrix(0.707107 -0.707107 -0.707107 -0.707107 243.536 21.2134)" fill="#CB6262"/>
<rect width="25" height="5" rx="2.5" transform="matrix(-0.707107 -0.707107 -0.707107 0.707107 261.213 37.6777)" fill="#CB6262"/>
<rect width="25" height="5" rx="2.5" transform="matrix(0.707107 -0.707107 -0.707107 -0.707107 243.536 41.2134)" fill="#CB6262"/>
<rect width="25" height="5" rx="2.5" transform="matrix(-0.707107 -0.707107 -0.707107 0.707107 261.213 57.6777)" fill="#CB6262"/>
<rect width="25" height="5" rx="2.5" transform="matrix(0.707107 -0.707107 -0.707107 -0.707107 243.536 61.2134)" fill="#CB6262"/>
<rect width="25" height="5" rx="2.5" transform="matrix(-0.707107 -0.707107 -0.707107 0.707107 261.213 97.6777)" fill="#CB6262"/>
<rect width="25" height="5" rx="2.5" transform="matrix(0.707107 -0.707107 -0.707107 -0.707107 243.536 101.213)" fill="#CB6262"/>
<rect width="25" height="5" rx="2.5" transform="matrix(-0.707107 -0.707107 -0.707107 0.707107 261.213 137.678)" fill="#CB6262"/>
<rect width="25" height="5" rx="2.5" transform="matrix(0.707107 -0.707107 -0.707107 -0.707107 243.536 141.213)" fill="#CB6262"/>
<rect width="25" height="5" rx="2.5" transform="matrix(-0.707107 -0.707107 -0.707107 0.707107 261.213 117.678)" fill="#CB6262"/>
<rect width="25" height="5" rx="2.5" transform="matrix(0.707107 -0.707107 -0.707107 -0.707107 243.536 121.213)" fill="#CB6262"/>
<rect width="25" height="5" rx="2.5" transform="matrix(-0.707107 -0.707107 -0.707107 0.707107 281.213 37.6777)" fill="#CB6262"/>
<rect width="25" height="5" rx="2.5" transform="matrix(0.707107 -0.707107 -0.707107 -0.707107 263.536 41.2134)" fill="#CB6262"/>
<rect width="25" height="5" rx="2.5" transform="matrix(-0.707107 -0.707107 -0.707107 0.707107 281.213 57.6777)" fill="#CB6262"/>
<rect width="25" height="5" rx="2.5" transform="matrix(0.707107 -0.707107 -0.707107 -0.707107 263.536 61.2134)" fill="#CB6262"/>
<rect width="25" height="5" rx="2.5" transform="matrix(-0.707107 -0.707107 -0.707107 0.707107 281.213 97.6777)" fill="#CB6262"/>
<rect width="25" height="5" rx="2.5" transform="matrix(0.707107 -0.707107 -0.707107 -0.707107 263.536 101.213)" fill="#CB6262"/>
<rect width="25" height="5" rx="2.5" transform="matrix(-0.707107 -0.707107 -0.707107 0.707107 281.213 117.678)" fill="#CB6262"/>
<rect width="25" height="5" rx="2.5" transform="matrix(0.707107 -0.707107 -0.707107 -0.707107 263.536 121.213)" fill="#CB6262"/>
<rect width="25" height="5" rx="2.5" transform="matrix(-0.707107 -0.707107 -0.707107 0.707107 281.213 77.6777)" fill="#CB6262"/>
<rect width="25" height="5" rx="2.5" transform="matrix(0.707107 -0.707107 -0.707107 -0.707107 263.536 81.2134)" fill="#CB6262"/>
<rect width="25" height="5" rx="2.5" transform="matrix(-0.707107 -0.707107 -0.707107 0.707107 301.213 57.6777)" fill="#CB6262"/>
<rect width="25" height="5" rx="2.5" transform="matrix(0.707107 -0.707107 -0.707107 -0.707107 283.536 61.2134)" fill="#CB6262"/>
<rect width="25" height="5" rx="2.5" transform="matrix(-0.707107 -0.707107 -0.707107 0.707107 301.213 77.6777)" fill="#CB6262"/>
<rect width="25" height="5" rx="2.5" transform="matrix(0.707107 -0.707107 -0.707107 -0.707107 283.536 81.2134)" fill="#CB6262"/>
<rect width="25" height="5" rx="2.5" transform="matrix(-0.707107 -0.707107 -0.707107 0.707107 301.213 97.6777)" fill="#CB6262"/>
<rect width="25" height="5" rx="2.5" transform="matrix(0.707107 -0.707107 -0.707107 -0.707107 283.536 101.213)" fill="#CB6262"/>
<rect width="25" height="5" rx="2.5" transform="matrix(-0.707107 -0.707107 -0.707107 0.707107 321.213 77.6777)" fill="#CB6262"/>
<rect width="25" height="5" rx="2.5" transform="matrix(0.707107 -0.707107 -0.707107 -0.707107 303.536 81.2134)" fill="#CB6262"/>
<rect width="25" height="5" rx="2.5" transform="matrix(-0.707107 -0.707107 -0.707107 0.707107 21.2132 137.678)" fill="#CB6262"/>
<rect width="25" height="5" rx="2.5" transform="matrix(0.707107 -0.707107 -0.707107 -0.707107 3.53564 141.213)" fill="#CB6262"/>
<rect width="25" height="5" rx="2.5" transform="matrix(-0.707107 -0.707107 -0.707107 0.707107 341.213 137.678)" fill="#CB6262"/>
<rect width="25" height="5" rx="2.5" transform="matrix(0.707107 -0.707107 -0.707107 -0.707107 323.536 141.213)" fill="#CB6262"/>
<rect width="25" height="5" rx="2.5" transform="matrix(-0.707107 -0.707107 -0.707107 0.707107 361.213 117.678)" fill="#CB6262"/>
<rect width="25" height="5" rx="2.5" transform="matrix(0.707107 -0.707107 -0.707107 -0.707107 343.536 121.213)" fill="#CB6262"/>
<rect width="25" height="5" rx="2.5" transform="matrix(-0.707107 -0.707107 -0.707107 0.707107 361.213 137.678)" fill="#CB6262"/>
<rect width="25" height="5" rx="2.5" transform="matrix(0.707107 -0.707107 -0.707107 -0.707107 343.536 141.213)" fill="#CB6262"/>
<rect width="25" height="5" rx="2.5" transform="matrix(0.707107 0.707107 0.707107 -0.707107 340 23.5356)" fill="#CB6262"/>
<rect width="25" height="5" rx="2.5" transform="matrix(-0.707107 0.707107 0.707107 0.707107 357.678 20)" fill="#CB6262"/>
<rect width="25" height="5" rx="2.5" transform="matrix(0.707107 0.707107 0.707107 -0.707107 340 3.53564)" fill="#CB6262"/>
<rect width="25" height="5" rx="2.5" transform="matrix(-0.707107 0.707107 0.707107 0.707107 357.678 0)" fill="#CB6262"/>
<rect width="25" height="5" rx="2.5" transform="matrix(0.707107 0.707107 0.707107 -0.707107 320 3.53564)" fill="#CB6262"/>
<rect width="25" height="5" rx="2.5" transform="matrix(-0.707107 0.707107 0.707107 0.707107 337.678 0)" fill="#CB6262"/>
<rect width="25" height="5" rx="2.5" transform="matrix(0.707107 0.707107 0.707107 -0.707107 0.000183105 3.53564)" fill="#CB6262"/>
<rect width="25" height="5" rx="2.5" transform="matrix(-0.707107 0.707107 0.707107 0.707107 17.6777 0)" fill="#CB6262"/>
</svg>
