<svg width="362" height="382" viewBox="0 0 362 382" fill="none" xmlns="http://www.w3.org/2000/svg">
<rect width="25" height="5" rx="2.5" transform="matrix(-0.707107 -0.707107 -0.707107 0.707107 21.2132 17.6777)" fill="#CB6262"/>
<rect width="25" height="5" rx="2.5" transform="matrix(0.707107 -0.707107 -0.707107 -0.707107 3.53558 21.2134)" fill="#CB6262"/>
<rect width="25" height="5" rx="2.5" transform="matrix(-0.707107 -0.707107 -0.707107 0.707107 101.213 17.6777)" fill="#CB6262"/>
<rect width="25" height="5" rx="2.5" transform="matrix(0.707107 -0.707107 -0.707107 -0.707107 83.5356 21.2134)" fill="#CB6262"/>
<rect width="25" height="5" rx="2.5" transform="matrix(-0.707107 -0.707107 -0.707107 0.707107 141.213 57.6777)" fill="#CB6262"/>
<rect width="25" height="5" rx="2.5" transform="matrix(0.707107 -0.707107 -0.707107 -0.707107 123.536 61.2134)" fill="#CB6262"/>
<rect width="25" height="5" rx="2.5" transform="matrix(-0.707107 -0.707107 -0.707107 0.707107 141.213 37.6777)" fill="#CB6262"/>
<rect width="25" height="5" rx="2.5" transform="matrix(0.707107 -0.707107 -0.707107 -0.707107 123.536 41.2134)" fill="#CB6262"/>
<rect width="25" height="5" rx="2.5" transform="matrix(-0.707107 -0.707107 -0.707107 0.707107 141.213 17.6777)" fill="#CB6262"/>
<rect width="25" height="5" rx="2.5" transform="matrix(0.707107 -0.707107 -0.707107 -0.707107 123.536 21.2134)" fill="#CB6262"/>
<rect width="25" height="5" rx="2.5" transform="matrix(-0.707107 -0.707107 -0.707107 0.707107 161.213 77.6777)" fill="#CB6262"/>
<rect width="25" height="5" rx="2.5" transform="matrix(0.707107 -0.707107 -0.707107 -0.707107 143.536 81.2134)" fill="#CB6262"/>
<rect width="25" height="5" rx="2.5" transform="matrix(-0.707107 -0.707107 -0.707107 0.707107 161.213 117.678)" fill="#CB6262"/>
<rect width="25" height="5" rx="2.5" transform="matrix(0.707107 -0.707107 -0.707107 -0.707107 143.536 121.213)" fill="#CB6262"/>
<rect width="25" height="5" rx="2.5" transform="matrix(-0.707107 -0.707107 -0.707107 0.707107 161.213 97.6777)" fill="#CB6262"/>
<rect width="25" height="5" rx="2.5" transform="matrix(0.707107 -0.707107 -0.707107 -0.707107 143.536 101.213)" fill="#CB6262"/>
<rect width="25" height="5" rx="2.5" transform="matrix(-0.707107 -0.707107 -0.707107 0.707107 161.213 57.6777)" fill="#CB6262"/>
<rect width="25" height="5" rx="2.5" transform="matrix(0.707107 -0.707107 -0.707107 -0.707107 143.536 61.2134)" fill="#CB6262"/>
<rect width="25" height="5" rx="2.5" transform="matrix(-0.707107 -0.707107 -0.707107 0.707107 161.213 37.6777)" fill="#CB6262"/>
<rect width="25" height="5" rx="2.5" transform="matrix(0.707107 -0.707107 -0.707107 -0.707107 143.536 41.2134)" fill="#CB6262"/>
<rect width="25" height="5" rx="2.5" transform="matrix(-0.707107 -0.707107 -0.707107 0.707107 181.213 97.6777)" fill="#CB6262"/>
<rect width="25" height="5" rx="2.5" transform="matrix(0.707107 -0.707107 -0.707107 -0.707107 163.536 101.213)" fill="#CB6262"/>
<rect width="25" height="5" rx="2.5" transform="matrix(-0.707107 -0.707107 -0.707107 0.707107 201.213 37.6777)" fill="#CB6262"/>
<rect width="25" height="5" rx="2.5" transform="matrix(0.707107 -0.707107 -0.707107 -0.707107 183.536 41.2134)" fill="#CB6262"/>
<rect width="25" height="5" rx="2.5" transform="matrix(-0.707107 -0.707107 -0.707107 0.707107 201.213 97.6777)" fill="#CB6262"/>
<rect width="25" height="5" rx="2.5" transform="matrix(0.707107 -0.707107 -0.707107 -0.707107 183.536 101.213)" fill="#CB6262"/>
<rect width="25" height="5" rx="2.5" transform="matrix(-0.707107 -0.707107 -0.707107 0.707107 201.213 77.6777)" fill="#CB6262"/>
<rect width="25" height="5" rx="2.5" transform="matrix(0.707107 -0.707107 -0.707107 -0.707107 183.536 81.2134)" fill="#CB6262"/>
<rect width="25" height="5" rx="2.5" transform="matrix(-0.707107 -0.707107 -0.707107 0.707107 201.213 57.6777)" fill="#CB6262"/>
<rect width="25" height="5" rx="2.5" transform="matrix(0.707107 -0.707107 -0.707107 -0.707107 183.536 61.2134)" fill="#CB6262"/>
<rect width="25" height="5" rx="2.5" transform="matrix(-0.707107 -0.707107 -0.707107 0.707107 181.213 77.6777)" fill="#CB6262"/>
<rect width="25" height="5" rx="2.5" transform="matrix(0.707107 -0.707107 -0.707107 -0.707107 163.536 81.2134)" fill="#CB6262"/>
<rect width="25" height="5" rx="2.5" transform="matrix(-0.707107 -0.707107 -0.707107 0.707107 181.213 57.6777)" fill="#CB6262"/>
<rect width="25" height="5" rx="2.5" transform="matrix(0.707107 -0.707107 -0.707107 -0.707107 163.536 61.2134)" fill="#CB6262"/>
<rect width="25" height="5" rx="2.5" transform="matrix(-0.707107 -0.707107 -0.707107 0.707107 121.213 17.6777)" fill="#CB6262"/>
<rect width="25" height="5" rx="2.5" transform="matrix(0.707107 -0.707107 -0.707107 -0.707107 103.536 21.2134)" fill="#CB6262"/>
<rect width="25" height="5" rx="2.5" transform="matrix(-0.707107 -0.707107 -0.707107 0.707107 121.213 37.6777)" fill="#CB6262"/>
<rect width="25" height="5" rx="2.5" transform="matrix(0.707107 -0.707107 -0.707107 -0.707107 103.536 41.2134)" fill="#CB6262"/>
<rect width="25" height="5" rx="2.5" transform="matrix(-0.707107 -0.707107 -0.707107 0.707107 21.2132 117.678)" fill="#CB6262"/>
<rect width="25" height="5" rx="2.5" transform="matrix(0.707107 -0.707107 -0.707107 -0.707107 3.53558 121.213)" fill="#CB6262"/>
<rect width="25" height="5" rx="2.5" transform="matrix(-0.707107 -0.707107 -0.707107 0.707107 21.2132 137.678)" fill="#CB6262"/>
<rect width="25" height="5" rx="2.5" transform="matrix(0.707107 -0.707107 -0.707107 -0.707107 3.53558 141.213)" fill="#CB6262"/>
<rect width="25" height="5" rx="2.5" transform="matrix(-0.707107 -0.707107 -0.707107 0.707107 21.2132 157.678)" fill="#CB6262"/>
<rect width="25" height="5" rx="2.5" transform="matrix(0.707107 -0.707107 -0.707107 -0.707107 3.53558 161.213)" fill="#CB6262"/>
<rect width="25" height="5" rx="2.5" transform="matrix(-0.707107 -0.707107 -0.707107 0.707107 21.2132 177.678)" fill="#CB6262"/>
<rect width="25" height="5" rx="2.5" transform="matrix(0.707107 -0.707107 -0.707107 -0.707107 3.53558 181.213)" fill="#CB6262"/>
<rect width="25" height="5" rx="2.5" transform="matrix(-0.707107 -0.707107 -0.707107 0.707107 21.2132 217.678)" fill="#CB6262"/>
<rect width="25" height="5" rx="2.5" transform="matrix(0.707107 -0.707107 -0.707107 -0.707107 3.53558 221.213)" fill="#CB6262"/>
<rect width="25" height="5" rx="2.5" transform="matrix(-0.707107 -0.707107 -0.707107 0.707107 21.2132 377.678)" fill="#CB6262"/>
<rect width="25" height="5" rx="2.5" transform="matrix(0.707107 -0.707107 -0.707107 -0.707107 3.53558 381.213)" fill="#CB6262"/>
<rect width="25" height="5" rx="2.5" transform="matrix(-0.707107 -0.707107 -0.707107 0.707107 21.2132 297.678)" fill="#CB6262"/>
<rect width="25" height="5" rx="2.5" transform="matrix(0.707107 -0.707107 -0.707107 -0.707107 3.53558 301.213)" fill="#CB6262"/>
<rect width="25" height="5" rx="2.5" transform="matrix(-0.707107 -0.707107 -0.707107 0.707107 21.2132 277.678)" fill="#CB6262"/>
<rect width="25" height="5" rx="2.5" transform="matrix(0.707107 -0.707107 -0.707107 -0.707107 3.53558 281.213)" fill="#CB6262"/>
<rect width="25" height="5" rx="2.5" transform="matrix(-0.707107 -0.707107 -0.707107 0.707107 21.2132 257.678)" fill="#CB6262"/>
<rect width="25" height="5" rx="2.5" transform="matrix(0.707107 -0.707107 -0.707107 -0.707107 3.53558 261.213)" fill="#CB6262"/>
<rect width="25" height="5" rx="2.5" transform="matrix(-0.707107 -0.707107 -0.707107 0.707107 21.2132 237.678)" fill="#CB6262"/>
<rect width="25" height="5" rx="2.5" transform="matrix(0.707107 -0.707107 -0.707107 -0.707107 3.53558 241.213)" fill="#CB6262"/>
<rect width="25" height="5" rx="2.5" transform="matrix(-0.707107 -0.707107 -0.707107 0.707107 41.2132 117.678)" fill="#CB6262"/>
<rect width="25" height="5" rx="2.5" transform="matrix(0.707107 -0.707107 -0.707107 -0.707107 23.5356 121.213)" fill="#CB6262"/>
<rect width="25" height="5" rx="2.5" transform="matrix(-0.707107 -0.707107 -0.707107 0.707107 41.2132 97.6777)" fill="#CB6262"/>
<rect width="25" height="5" rx="2.5" transform="matrix(0.707107 -0.707107 -0.707107 -0.707107 23.5356 101.213)" fill="#CB6262"/>
<rect width="25" height="5" rx="2.5" transform="matrix(-0.707107 -0.707107 -0.707107 0.707107 41.2132 77.6777)" fill="#CB6262"/>
<rect width="25" height="5" rx="2.5" transform="matrix(0.707107 -0.707107 -0.707107 -0.707107 23.5356 81.2134)" fill="#CB6262"/>
<rect width="25" height="5" rx="2.5" transform="matrix(-0.707107 -0.707107 -0.707107 0.707107 41.2132 157.678)" fill="#CB6262"/>
<rect width="25" height="5" rx="2.5" transform="matrix(0.707107 -0.707107 -0.707107 -0.707107 23.5356 161.213)" fill="#CB6262"/>
<rect width="25" height="5" rx="2.5" transform="matrix(-0.707107 -0.707107 -0.707107 0.707107 41.2132 177.678)" fill="#CB6262"/>
<rect width="25" height="5" rx="2.5" transform="matrix(0.707107 -0.707107 -0.707107 -0.707107 23.5356 181.213)" fill="#CB6262"/>
<rect width="25" height="5" rx="2.5" transform="matrix(-0.707107 -0.707107 -0.707107 0.707107 41.2132 217.678)" fill="#CB6262"/>
<rect width="25" height="5" rx="2.5" transform="matrix(0.707107 -0.707107 -0.707107 -0.707107 23.5356 221.213)" fill="#CB6262"/>
<rect width="25" height="5" rx="2.5" transform="matrix(-0.707107 -0.707107 -0.707107 0.707107 41.2132 237.678)" fill="#CB6262"/>
<rect width="25" height="5" rx="2.5" transform="matrix(0.707107 -0.707107 -0.707107 -0.707107 23.5356 241.213)" fill="#CB6262"/>
<rect width="25" height="5" rx="2.5" transform="matrix(-0.707107 -0.707107 -0.707107 0.707107 41.2132 277.678)" fill="#CB6262"/>
<rect width="25" height="5" rx="2.5" transform="matrix(0.707107 -0.707107 -0.707107 -0.707107 23.5356 281.213)" fill="#CB6262"/>
<rect width="25" height="5" rx="2.5" transform="matrix(-0.707107 -0.707107 -0.707107 0.707107 41.2132 197.678)" fill="#CB6262"/>
<rect width="25" height="5" rx="2.5" transform="matrix(0.707107 -0.707107 -0.707107 -0.707107 23.5356 201.213)" fill="#CB6262"/>
<rect width="25" height="5" rx="2.5" transform="matrix(-0.707107 -0.707107 -0.707107 0.707107 41.2132 297.678)" fill="#CB6262"/>
<rect width="25" height="5" rx="2.5" transform="matrix(0.707107 -0.707107 -0.707107 -0.707107 23.5356 301.213)" fill="#CB6262"/>
<rect width="25" height="5" rx="2.5" transform="matrix(-0.707107 -0.707107 -0.707107 0.707107 41.2132 317.678)" fill="#CB6262"/>
<rect width="25" height="5" rx="2.5" transform="matrix(0.707107 -0.707107 -0.707107 -0.707107 23.5356 321.213)" fill="#CB6262"/>
<rect width="25" height="5" rx="2.5" transform="matrix(-0.707107 -0.707107 -0.707107 0.707107 61.2132 57.6777)" fill="#CB6262"/>
<rect width="25" height="5" rx="2.5" transform="matrix(0.707107 -0.707107 -0.707107 -0.707107 43.5356 61.2134)" fill="#CB6262"/>
<rect width="25" height="5" rx="2.5" transform="matrix(-0.707107 -0.707107 -0.707107 0.707107 81.2132 77.6777)" fill="#CB6262"/>
<rect width="25" height="5" rx="2.5" transform="matrix(0.707107 -0.707107 -0.707107 -0.707107 63.5356 81.2134)" fill="#CB6262"/>
<rect width="25" height="5" rx="2.5" transform="matrix(-0.707107 -0.707107 -0.707107 0.707107 21.2132 97.6777)" fill="#CB6262"/>
<rect width="25" height="5" rx="2.5" transform="matrix(0.707107 -0.707107 -0.707107 -0.707107 3.53558 101.213)" fill="#CB6262"/>
<rect width="25" height="5" rx="2.5" transform="matrix(-0.707107 -0.707107 -0.707107 0.707107 61.2132 97.6777)" fill="#CB6262"/>
<rect width="25" height="5" rx="2.5" transform="matrix(0.707107 -0.707107 -0.707107 -0.707107 43.5356 101.213)" fill="#CB6262"/>
<rect width="25" height="5" rx="2.5" transform="matrix(-0.707107 -0.707107 -0.707107 0.707107 61.2132 77.6777)" fill="#CB6262"/>
<rect width="25" height="5" rx="2.5" transform="matrix(0.707107 -0.707107 -0.707107 -0.707107 43.5356 81.2134)" fill="#CB6262"/>
<rect width="25" height="5" rx="2.5" transform="matrix(-0.707107 -0.707107 -0.707107 0.707107 61.2132 177.678)" fill="#CB6262"/>
<rect width="25" height="5" rx="2.5" transform="matrix(0.707107 -0.707107 -0.707107 -0.707107 43.5356 181.213)" fill="#CB6262"/>
<rect width="25" height="5" rx="2.5" transform="matrix(-0.707107 -0.707107 -0.707107 0.707107 61.2132 197.678)" fill="#CB6262"/>
<rect width="25" height="5" rx="2.5" transform="matrix(0.707107 -0.707107 -0.707107 -0.707107 43.5356 201.213)" fill="#CB6262"/>
<rect width="25" height="5" rx="2.5" transform="matrix(-0.707107 -0.707107 -0.707107 0.707107 61.2132 217.678)" fill="#CB6262"/>
<rect width="25" height="5" rx="2.5" transform="matrix(0.707107 -0.707107 -0.707107 -0.707107 43.5356 221.213)" fill="#CB6262"/>
<rect width="25" height="5" rx="2.5" transform="matrix(-0.707107 -0.707107 -0.707107 0.707107 61.2132 297.678)" fill="#CB6262"/>
<rect width="25" height="5" rx="2.5" transform="matrix(0.707107 -0.707107 -0.707107 -0.707107 43.5356 301.213)" fill="#CB6262"/>
<rect width="25" height="5" rx="2.5" transform="matrix(-0.707107 -0.707107 -0.707107 0.707107 61.2132 317.678)" fill="#CB6262"/>
<rect width="25" height="5" rx="2.5" transform="matrix(0.707107 -0.707107 -0.707107 -0.707107 43.5356 321.213)" fill="#CB6262"/>
<rect width="25" height="5" rx="2.5" transform="matrix(-0.707107 -0.707107 -0.707107 0.707107 61.2132 337.678)" fill="#CB6262"/>
<rect width="25" height="5" rx="2.5" transform="matrix(0.707107 -0.707107 -0.707107 -0.707107 43.5356 341.213)" fill="#CB6262"/>
<rect width="25" height="5" rx="2.5" transform="matrix(-0.707107 -0.707107 -0.707107 0.707107 81.2132 157.678)" fill="#CB6262"/>
<rect width="25" height="5" rx="2.5" transform="matrix(0.707107 -0.707107 -0.707107 -0.707107 63.5356 161.213)" fill="#CB6262"/>
<rect width="25" height="5" rx="2.5" transform="matrix(-0.707107 -0.707107 -0.707107 0.707107 81.2132 177.678)" fill="#CB6262"/>
<rect width="25" height="5" rx="2.5" transform="matrix(0.707107 -0.707107 -0.707107 -0.707107 63.5356 181.213)" fill="#CB6262"/>
<rect width="25" height="5" rx="2.5" transform="matrix(-0.707107 -0.707107 -0.707107 0.707107 81.2132 197.678)" fill="#CB6262"/>
<rect width="25" height="5" rx="2.5" transform="matrix(0.707107 -0.707107 -0.707107 -0.707107 63.5356 201.213)" fill="#CB6262"/>
<rect width="25" height="5" rx="2.5" transform="matrix(-0.707107 -0.707107 -0.707107 0.707107 81.2132 217.678)" fill="#CB6262"/>
<rect width="25" height="5" rx="2.5" transform="matrix(0.707107 -0.707107 -0.707107 -0.707107 63.5356 221.213)" fill="#CB6262"/>
<rect width="25" height="5" rx="2.5" transform="matrix(-0.707107 -0.707107 -0.707107 0.707107 81.2132 237.678)" fill="#CB6262"/>
<rect width="25" height="5" rx="2.5" transform="matrix(0.707107 -0.707107 -0.707107 -0.707107 63.5356 241.213)" fill="#CB6262"/>
<rect width="25" height="5" rx="2.5" transform="matrix(-0.707107 -0.707107 -0.707107 0.707107 81.2132 317.678)" fill="#CB6262"/>
<rect width="25" height="5" rx="2.5" transform="matrix(0.707107 -0.707107 -0.707107 -0.707107 63.5356 321.213)" fill="#CB6262"/>
<rect width="25" height="5" rx="2.5" transform="matrix(-0.707107 -0.707107 -0.707107 0.707107 101.213 137.678)" fill="#CB6262"/>
<rect width="25" height="5" rx="2.5" transform="matrix(0.707107 -0.707107 -0.707107 -0.707107 83.5356 141.213)" fill="#CB6262"/>
<rect width="25" height="5" rx="2.5" transform="matrix(-0.707107 -0.707107 -0.707107 0.707107 101.213 157.678)" fill="#CB6262"/>
<rect width="25" height="5" rx="2.5" transform="matrix(0.707107 -0.707107 -0.707107 -0.707107 83.5356 161.213)" fill="#CB6262"/>
<rect width="25" height="5" rx="2.5" transform="matrix(-0.707107 -0.707107 -0.707107 0.707107 101.213 177.678)" fill="#CB6262"/>
<rect width="25" height="5" rx="2.5" transform="matrix(0.707107 -0.707107 -0.707107 -0.707107 83.5356 181.213)" fill="#CB6262"/>
<rect width="25" height="5" rx="2.5" transform="matrix(-0.707107 -0.707107 -0.707107 0.707107 101.213 217.678)" fill="#CB6262"/>
<rect width="25" height="5" rx="2.5" transform="matrix(0.707107 -0.707107 -0.707107 -0.707107 83.5356 221.213)" fill="#CB6262"/>
<rect width="25" height="5" rx="2.5" transform="matrix(-0.707107 -0.707107 -0.707107 0.707107 101.213 237.678)" fill="#CB6262"/>
<rect width="25" height="5" rx="2.5" transform="matrix(0.707107 -0.707107 -0.707107 -0.707107 83.5356 241.213)" fill="#CB6262"/>
<rect width="25" height="5" rx="2.5" transform="matrix(-0.707107 -0.707107 -0.707107 0.707107 101.213 257.678)" fill="#CB6262"/>
<rect width="25" height="5" rx="2.5" transform="matrix(0.707107 -0.707107 -0.707107 -0.707107 83.5356 261.213)" fill="#CB6262"/>
<rect width="25" height="5" rx="2.5" transform="matrix(-0.707107 -0.707107 -0.707107 0.707107 101.213 377.678)" fill="#CB6262"/>
<rect width="25" height="5" rx="2.5" transform="matrix(0.707107 -0.707107 -0.707107 -0.707107 83.5356 381.213)" fill="#CB6262"/>
<rect width="25" height="5" rx="2.5" transform="matrix(-0.707107 -0.707107 -0.707107 0.707107 121.213 117.678)" fill="#CB6262"/>
<rect width="25" height="5" rx="2.5" transform="matrix(0.707107 -0.707107 -0.707107 -0.707107 103.536 121.213)" fill="#CB6262"/>
<rect width="25" height="5" rx="2.5" transform="matrix(-0.707107 -0.707107 -0.707107 0.707107 121.213 137.678)" fill="#CB6262"/>
<rect width="25" height="5" rx="2.5" transform="matrix(0.707107 -0.707107 -0.707107 -0.707107 103.536 141.213)" fill="#CB6262"/>
<rect width="25" height="5" rx="2.5" transform="matrix(-0.707107 -0.707107 -0.707107 0.707107 121.213 157.678)" fill="#CB6262"/>
<rect width="25" height="5" rx="2.5" transform="matrix(0.707107 -0.707107 -0.707107 -0.707107 103.536 161.213)" fill="#CB6262"/>
<rect width="25" height="5" rx="2.5" transform="matrix(-0.707107 -0.707107 -0.707107 0.707107 121.213 237.678)" fill="#CB6262"/>
<rect width="25" height="5" rx="2.5" transform="matrix(0.707107 -0.707107 -0.707107 -0.707107 103.536 241.213)" fill="#CB6262"/>
<rect width="25" height="5" rx="2.5" transform="matrix(-0.707107 -0.707107 -0.707107 0.707107 121.213 257.678)" fill="#CB6262"/>
<rect width="25" height="5" rx="2.5" transform="matrix(0.707107 -0.707107 -0.707107 -0.707107 103.536 261.213)" fill="#CB6262"/>
<rect width="25" height="5" rx="2.5" transform="matrix(-0.707107 -0.707107 -0.707107 0.707107 121.213 277.678)" fill="#CB6262"/>
<rect width="25" height="5" rx="2.5" transform="matrix(0.707107 -0.707107 -0.707107 -0.707107 103.536 281.213)" fill="#CB6262"/>
<rect width="25" height="5" rx="2.5" transform="matrix(-0.707107 -0.707107 -0.707107 0.707107 121.213 357.678)" fill="#CB6262"/>
<rect width="25" height="5" rx="2.5" transform="matrix(0.707107 -0.707107 -0.707107 -0.707107 103.536 361.213)" fill="#CB6262"/>
<rect width="25" height="5" rx="2.5" transform="matrix(-0.707107 -0.707107 -0.707107 0.707107 121.213 377.678)" fill="#CB6262"/>
<rect width="25" height="5" rx="2.5" transform="matrix(0.707107 -0.707107 -0.707107 -0.707107 103.536 381.213)" fill="#CB6262"/>
<rect width="25" height="5" rx="2.5" transform="matrix(-0.707107 -0.707107 -0.707107 0.707107 141.213 97.6777)" fill="#CB6262"/>
<rect width="25" height="5" rx="2.5" transform="matrix(0.707107 -0.707107 -0.707107 -0.707107 123.536 101.213)" fill="#CB6262"/>
<rect width="25" height="5" rx="2.5" transform="matrix(-0.707107 -0.707107 -0.707107 0.707107 141.213 117.678)" fill="#CB6262"/>
<rect width="25" height="5" rx="2.5" transform="matrix(0.707107 -0.707107 -0.707107 -0.707107 123.536 121.213)" fill="#CB6262"/>
<rect width="25" height="5" rx="2.5" transform="matrix(-0.707107 -0.707107 -0.707107 0.707107 141.213 137.678)" fill="#CB6262"/>
<rect width="25" height="5" rx="2.5" transform="matrix(0.707107 -0.707107 -0.707107 -0.707107 123.536 141.213)" fill="#CB6262"/>
<rect width="25" height="5" rx="2.5" transform="matrix(-0.707107 -0.707107 -0.707107 0.707107 141.213 257.678)" fill="#CB6262"/>
<rect width="25" height="5" rx="2.5" transform="matrix(0.707107 -0.707107 -0.707107 -0.707107 123.536 261.213)" fill="#CB6262"/>
<rect width="25" height="5" rx="2.5" transform="matrix(-0.707107 -0.707107 -0.707107 0.707107 141.213 277.678)" fill="#CB6262"/>
<rect width="25" height="5" rx="2.5" transform="matrix(0.707107 -0.707107 -0.707107 -0.707107 123.536 281.213)" fill="#CB6262"/>
<rect width="25" height="5" rx="2.5" transform="matrix(-0.707107 -0.707107 -0.707107 0.707107 141.213 297.678)" fill="#CB6262"/>
<rect width="25" height="5" rx="2.5" transform="matrix(0.707107 -0.707107 -0.707107 -0.707107 123.536 301.213)" fill="#CB6262"/>
<rect width="25" height="5" rx="2.5" transform="matrix(-0.707107 -0.707107 -0.707107 0.707107 141.213 337.678)" fill="#CB6262"/>
<rect width="25" height="5" rx="2.5" transform="matrix(0.707107 -0.707107 -0.707107 -0.707107 123.536 341.213)" fill="#CB6262"/>
<rect width="25" height="5" rx="2.5" transform="matrix(-0.707107 -0.707107 -0.707107 0.707107 141.213 357.678)" fill="#CB6262"/>
<rect width="25" height="5" rx="2.5" transform="matrix(0.707107 -0.707107 -0.707107 -0.707107 123.536 361.213)" fill="#CB6262"/>
<rect width="25" height="5" rx="2.5" transform="matrix(-0.707107 -0.707107 -0.707107 0.707107 141.213 377.678)" fill="#CB6262"/>
<rect width="25" height="5" rx="2.5" transform="matrix(0.707107 -0.707107 -0.707107 -0.707107 123.536 381.213)" fill="#CB6262"/>
<rect width="25" height="5" rx="2.5" transform="matrix(-0.707107 -0.707107 -0.707107 0.707107 161.213 197.678)" fill="#CB6262"/>
<rect width="25" height="5" rx="2.5" transform="matrix(0.707107 -0.707107 -0.707107 -0.707107 143.536 201.213)" fill="#CB6262"/>
<rect width="25" height="5" rx="2.5" transform="matrix(-0.707107 -0.707107 -0.707107 0.707107 161.213 277.678)" fill="#CB6262"/>
<rect width="25" height="5" rx="2.5" transform="matrix(0.707107 -0.707107 -0.707107 -0.707107 143.536 281.213)" fill="#CB6262"/>
<rect width="25" height="5" rx="2.5" transform="matrix(-0.707107 -0.707107 -0.707107 0.707107 161.213 297.678)" fill="#CB6262"/>
<rect width="25" height="5" rx="2.5" transform="matrix(0.707107 -0.707107 -0.707107 -0.707107 143.536 301.213)" fill="#CB6262"/>
<rect width="25" height="5" rx="2.5" transform="matrix(-0.707107 -0.707107 -0.707107 0.707107 161.213 317.678)" fill="#CB6262"/>
<rect width="25" height="5" rx="2.5" transform="matrix(0.707107 -0.707107 -0.707107 -0.707107 143.536 321.213)" fill="#CB6262"/>
<rect width="25" height="5" rx="2.5" transform="matrix(-0.707107 -0.707107 -0.707107 0.707107 161.213 337.678)" fill="#CB6262"/>
<rect width="25" height="5" rx="2.5" transform="matrix(0.707107 -0.707107 -0.707107 -0.707107 143.536 341.213)" fill="#CB6262"/>
<rect width="25" height="5" rx="2.5" transform="matrix(-0.707107 -0.707107 -0.707107 0.707107 161.213 357.678)" fill="#CB6262"/>
<rect width="25" height="5" rx="2.5" transform="matrix(0.707107 -0.707107 -0.707107 -0.707107 143.536 361.213)" fill="#CB6262"/>
<rect width="25" height="5" rx="2.5" transform="matrix(-0.707107 -0.707107 -0.707107 0.707107 181.213 177.678)" fill="#CB6262"/>
<rect width="25" height="5" rx="2.5" transform="matrix(0.707107 -0.707107 -0.707107 -0.707107 163.536 181.213)" fill="#CB6262"/>
<rect width="25" height="5" rx="2.5" transform="matrix(-0.707107 -0.707107 -0.707107 0.707107 181.213 197.678)" fill="#CB6262"/>
<rect width="25" height="5" rx="2.5" transform="matrix(0.707107 -0.707107 -0.707107 -0.707107 163.536 201.213)" fill="#CB6262"/>
<rect width="25" height="5" rx="2.5" transform="matrix(-0.707107 -0.707107 -0.707107 0.707107 181.213 217.678)" fill="#CB6262"/>
<rect width="25" height="5" rx="2.5" transform="matrix(0.707107 -0.707107 -0.707107 -0.707107 163.536 221.213)" fill="#CB6262"/>
<rect width="25" height="5" rx="2.5" transform="matrix(-0.707107 -0.707107 -0.707107 0.707107 181.213 297.678)" fill="#CB6262"/>
<rect width="25" height="5" rx="2.5" transform="matrix(0.707107 -0.707107 -0.707107 -0.707107 163.536 301.213)" fill="#CB6262"/>
<rect width="25" height="5" rx="2.5" transform="matrix(-0.707107 -0.707107 -0.707107 0.707107 181.213 317.678)" fill="#CB6262"/>
<rect width="25" height="5" rx="2.5" transform="matrix(0.707107 -0.707107 -0.707107 -0.707107 163.536 321.213)" fill="#CB6262"/>
<rect width="25" height="5" rx="2.5" transform="matrix(-0.707107 -0.707107 -0.707107 0.707107 181.213 337.678)" fill="#CB6262"/>
<rect width="25" height="5" rx="2.5" transform="matrix(0.707107 -0.707107 -0.707107 -0.707107 163.536 341.213)" fill="#CB6262"/>
<rect x="320" y="17.6777" width="25" height="5" rx="2.5" transform="rotate(-45 320 17.6777)" fill="#CB6262"/>
<rect x="337.678" y="21.2134" width="25" height="5" rx="2.5" transform="rotate(-135 337.678 21.2134)" fill="#CB6262"/>
<rect x="340" y="37.6777" width="25" height="5" rx="2.5" transform="rotate(-45 340 37.6777)" fill="#CB6262"/>
<rect x="357.678" y="41.2134" width="25" height="5" rx="2.5" transform="rotate(-135 357.678 41.2134)" fill="#CB6262"/>
<rect x="340" y="17.6777" width="25" height="5" rx="2.5" transform="rotate(-45 340 17.6777)" fill="#CB6262"/>
<rect x="357.678" y="21.2134" width="25" height="5" rx="2.5" transform="rotate(-135 357.678 21.2134)" fill="#CB6262"/>
<rect x="240" y="17.6777" width="25" height="5" rx="2.5" transform="rotate(-45 240 17.6777)" fill="#CB6262"/>
<rect x="257.678" y="21.2134" width="25" height="5" rx="2.5" transform="rotate(-135 257.678 21.2134)" fill="#CB6262"/>
<rect x="200" y="57.6777" width="25" height="5" rx="2.5" transform="rotate(-45 200 57.6777)" fill="#CB6262"/>
<rect x="217.678" y="61.2134" width="25" height="5" rx="2.5" transform="rotate(-135 217.678 61.2134)" fill="#CB6262"/>
<rect x="200" y="37.6777" width="25" height="5" rx="2.5" transform="rotate(-45 200 37.6777)" fill="#CB6262"/>
<rect x="217.678" y="41.2134" width="25" height="5" rx="2.5" transform="rotate(-135 217.678 41.2134)" fill="#CB6262"/>
<rect x="200" y="17.6777" width="25" height="5" rx="2.5" transform="rotate(-45 200 17.6777)" fill="#CB6262"/>
<rect x="217.678" y="21.2134" width="25" height="5" rx="2.5" transform="rotate(-135 217.678 21.2134)" fill="#CB6262"/>
<rect x="220" y="17.6777" width="25" height="5" rx="2.5" transform="rotate(-45 220 17.6777)" fill="#CB6262"/>
<rect x="237.678" y="21.2134" width="25" height="5" rx="2.5" transform="rotate(-135 237.678 21.2134)" fill="#CB6262"/>
<rect x="220" y="37.6777" width="25" height="5" rx="2.5" transform="rotate(-45 220 37.6777)" fill="#CB6262"/>
<rect x="237.678" y="41.2134" width="25" height="5" rx="2.5" transform="rotate(-135 237.678 41.2134)" fill="#CB6262"/>
<rect x="320" y="117.678" width="25" height="5" rx="2.5" transform="rotate(-45 320 117.678)" fill="#CB6262"/>
<rect x="337.678" y="121.213" width="25" height="5" rx="2.5" transform="rotate(-135 337.678 121.213)" fill="#CB6262"/>
<rect x="320" y="137.678" width="25" height="5" rx="2.5" transform="rotate(-45 320 137.678)" fill="#CB6262"/>
<rect x="337.678" y="141.213" width="25" height="5" rx="2.5" transform="rotate(-135 337.678 141.213)" fill="#CB6262"/>
<rect x="320" y="157.678" width="25" height="5" rx="2.5" transform="rotate(-45 320 157.678)" fill="#CB6262"/>
<rect x="337.678" y="161.213" width="25" height="5" rx="2.5" transform="rotate(-135 337.678 161.213)" fill="#CB6262"/>
<rect x="320" y="177.678" width="25" height="5" rx="2.5" transform="rotate(-45 320 177.678)" fill="#CB6262"/>
<rect x="337.678" y="181.213" width="25" height="5" rx="2.5" transform="rotate(-135 337.678 181.213)" fill="#CB6262"/>
<rect x="320" y="217.678" width="25" height="5" rx="2.5" transform="rotate(-45 320 217.678)" fill="#CB6262"/>
<rect x="337.678" y="221.213" width="25" height="5" rx="2.5" transform="rotate(-135 337.678 221.213)" fill="#CB6262"/>
<rect x="320" y="377.678" width="25" height="5" rx="2.5" transform="rotate(-45 320 377.678)" fill="#CB6262"/>
<rect x="337.678" y="381.213" width="25" height="5" rx="2.5" transform="rotate(-135 337.678 381.213)" fill="#CB6262"/>
<rect x="320" y="297.678" width="25" height="5" rx="2.5" transform="rotate(-45 320 297.678)" fill="#CB6262"/>
<rect x="337.678" y="301.213" width="25" height="5" rx="2.5" transform="rotate(-135 337.678 301.213)" fill="#CB6262"/>
<rect x="320" y="277.678" width="25" height="5" rx="2.5" transform="rotate(-45 320 277.678)" fill="#CB6262"/>
<rect x="337.678" y="281.213" width="25" height="5" rx="2.5" transform="rotate(-135 337.678 281.213)" fill="#CB6262"/>
<rect x="320" y="257.678" width="25" height="5" rx="2.5" transform="rotate(-45 320 257.678)" fill="#CB6262"/>
<rect x="337.678" y="261.213" width="25" height="5" rx="2.5" transform="rotate(-135 337.678 261.213)" fill="#CB6262"/>
<rect x="320" y="237.678" width="25" height="5" rx="2.5" transform="rotate(-45 320 237.678)" fill="#CB6262"/>
<rect x="337.678" y="241.213" width="25" height="5" rx="2.5" transform="rotate(-135 337.678 241.213)" fill="#CB6262"/>
<rect x="300" y="117.678" width="25" height="5" rx="2.5" transform="rotate(-45 300 117.678)" fill="#CB6262"/>
<rect x="317.678" y="121.213" width="25" height="5" rx="2.5" transform="rotate(-135 317.678 121.213)" fill="#CB6262"/>
<rect x="300" y="97.6777" width="25" height="5" rx="2.5" transform="rotate(-45 300 97.6777)" fill="#CB6262"/>
<rect x="317.678" y="101.213" width="25" height="5" rx="2.5" transform="rotate(-135 317.678 101.213)" fill="#CB6262"/>
<rect x="300" y="77.6777" width="25" height="5" rx="2.5" transform="rotate(-45 300 77.6777)" fill="#CB6262"/>
<rect x="317.678" y="81.2134" width="25" height="5" rx="2.5" transform="rotate(-135 317.678 81.2134)" fill="#CB6262"/>
<rect x="300" y="157.678" width="25" height="5" rx="2.5" transform="rotate(-45 300 157.678)" fill="#CB6262"/>
<rect x="317.678" y="161.213" width="25" height="5" rx="2.5" transform="rotate(-135 317.678 161.213)" fill="#CB6262"/>
<rect x="300" y="177.678" width="25" height="5" rx="2.5" transform="rotate(-45 300 177.678)" fill="#CB6262"/>
<rect x="317.678" y="181.213" width="25" height="5" rx="2.5" transform="rotate(-135 317.678 181.213)" fill="#CB6262"/>
<rect x="300" y="217.678" width="25" height="5" rx="2.5" transform="rotate(-45 300 217.678)" fill="#CB6262"/>
<rect x="317.678" y="221.213" width="25" height="5" rx="2.5" transform="rotate(-135 317.678 221.213)" fill="#CB6262"/>
<rect x="300" y="237.678" width="25" height="5" rx="2.5" transform="rotate(-45 300 237.678)" fill="#CB6262"/>
<rect x="317.678" y="241.213" width="25" height="5" rx="2.5" transform="rotate(-135 317.678 241.213)" fill="#CB6262"/>
<rect x="300" y="277.678" width="25" height="5" rx="2.5" transform="rotate(-45 300 277.678)" fill="#CB6262"/>
<rect x="317.678" y="281.213" width="25" height="5" rx="2.5" transform="rotate(-135 317.678 281.213)" fill="#CB6262"/>
<rect x="300" y="197.678" width="25" height="5" rx="2.5" transform="rotate(-45 300 197.678)" fill="#CB6262"/>
<rect x="317.678" y="201.213" width="25" height="5" rx="2.5" transform="rotate(-135 317.678 201.213)" fill="#CB6262"/>
<rect x="300" y="297.678" width="25" height="5" rx="2.5" transform="rotate(-45 300 297.678)" fill="#CB6262"/>
<rect x="317.678" y="301.213" width="25" height="5" rx="2.5" transform="rotate(-135 317.678 301.213)" fill="#CB6262"/>
<rect x="300" y="317.678" width="25" height="5" rx="2.5" transform="rotate(-45 300 317.678)" fill="#CB6262"/>
<rect x="317.678" y="321.213" width="25" height="5" rx="2.5" transform="rotate(-135 317.678 321.213)" fill="#CB6262"/>
<rect x="280" y="57.6777" width="25" height="5" rx="2.5" transform="rotate(-45 280 57.6777)" fill="#CB6262"/>
<rect x="297.678" y="61.2134" width="25" height="5" rx="2.5" transform="rotate(-135 297.678 61.2134)" fill="#CB6262"/>
<rect x="260" y="77.6777" width="25" height="5" rx="2.5" transform="rotate(-45 260 77.6777)" fill="#CB6262"/>
<rect x="277.678" y="81.2134" width="25" height="5" rx="2.5" transform="rotate(-135 277.678 81.2134)" fill="#CB6262"/>
<rect x="320" y="97.6777" width="25" height="5" rx="2.5" transform="rotate(-45 320 97.6777)" fill="#CB6262"/>
<rect x="337.678" y="101.213" width="25" height="5" rx="2.5" transform="rotate(-135 337.678 101.213)" fill="#CB6262"/>
<rect x="280" y="97.6777" width="25" height="5" rx="2.5" transform="rotate(-45 280 97.6777)" fill="#CB6262"/>
<rect x="297.678" y="101.213" width="25" height="5" rx="2.5" transform="rotate(-135 297.678 101.213)" fill="#CB6262"/>
<rect x="280" y="77.6777" width="25" height="5" rx="2.5" transform="rotate(-45 280 77.6777)" fill="#CB6262"/>
<rect x="297.678" y="81.2134" width="25" height="5" rx="2.5" transform="rotate(-135 297.678 81.2134)" fill="#CB6262"/>
<rect x="280" y="177.678" width="25" height="5" rx="2.5" transform="rotate(-45 280 177.678)" fill="#CB6262"/>
<rect x="297.678" y="181.213" width="25" height="5" rx="2.5" transform="rotate(-135 297.678 181.213)" fill="#CB6262"/>
<rect x="280" y="197.678" width="25" height="5" rx="2.5" transform="rotate(-45 280 197.678)" fill="#CB6262"/>
<rect x="297.678" y="201.213" width="25" height="5" rx="2.5" transform="rotate(-135 297.678 201.213)" fill="#CB6262"/>
<rect x="280" y="217.678" width="25" height="5" rx="2.5" transform="rotate(-45 280 217.678)" fill="#CB6262"/>
<rect x="297.678" y="221.213" width="25" height="5" rx="2.5" transform="rotate(-135 297.678 221.213)" fill="#CB6262"/>
<rect x="280" y="297.678" width="25" height="5" rx="2.5" transform="rotate(-45 280 297.678)" fill="#CB6262"/>
<rect x="297.678" y="301.213" width="25" height="5" rx="2.5" transform="rotate(-135 297.678 301.213)" fill="#CB6262"/>
<rect x="280" y="317.678" width="25" height="5" rx="2.5" transform="rotate(-45 280 317.678)" fill="#CB6262"/>
<rect x="297.678" y="321.213" width="25" height="5" rx="2.5" transform="rotate(-135 297.678 321.213)" fill="#CB6262"/>
<rect x="280" y="337.678" width="25" height="5" rx="2.5" transform="rotate(-45 280 337.678)" fill="#CB6262"/>
<rect x="297.678" y="341.213" width="25" height="5" rx="2.5" transform="rotate(-135 297.678 341.213)" fill="#CB6262"/>
<rect x="340" y="357.678" width="25" height="5" rx="2.5" transform="rotate(-45 340 357.678)" fill="#CB6262"/>
<rect x="357.678" y="361.213" width="25" height="5" rx="2.5" transform="rotate(-135 357.678 361.213)" fill="#CB6262"/>
<rect x="340" y="377.678" width="25" height="5" rx="2.5" transform="rotate(-45 340 377.678)" fill="#CB6262"/>
<rect x="357.678" y="381.213" width="25" height="5" rx="2.5" transform="rotate(-135 357.678 381.213)" fill="#CB6262"/>
<rect x="260" y="157.678" width="25" height="5" rx="2.5" transform="rotate(-45 260 157.678)" fill="#CB6262"/>
<rect x="277.678" y="161.213" width="25" height="5" rx="2.5" transform="rotate(-135 277.678 161.213)" fill="#CB6262"/>
<rect x="260" y="177.678" width="25" height="5" rx="2.5" transform="rotate(-45 260 177.678)" fill="#CB6262"/>
<rect x="277.678" y="181.213" width="25" height="5" rx="2.5" transform="rotate(-135 277.678 181.213)" fill="#CB6262"/>
<rect x="260" y="197.678" width="25" height="5" rx="2.5" transform="rotate(-45 260 197.678)" fill="#CB6262"/>
<rect x="277.678" y="201.213" width="25" height="5" rx="2.5" transform="rotate(-135 277.678 201.213)" fill="#CB6262"/>
<rect x="260" y="217.678" width="25" height="5" rx="2.5" transform="rotate(-45 260 217.678)" fill="#CB6262"/>
<rect x="277.678" y="221.213" width="25" height="5" rx="2.5" transform="rotate(-135 277.678 221.213)" fill="#CB6262"/>
<rect x="260" y="237.678" width="25" height="5" rx="2.5" transform="rotate(-45 260 237.678)" fill="#CB6262"/>
<rect x="277.678" y="241.213" width="25" height="5" rx="2.5" transform="rotate(-135 277.678 241.213)" fill="#CB6262"/>
<rect x="260" y="317.678" width="25" height="5" rx="2.5" transform="rotate(-45 260 317.678)" fill="#CB6262"/>
<rect x="277.678" y="321.213" width="25" height="5" rx="2.5" transform="rotate(-135 277.678 321.213)" fill="#CB6262"/>
<rect x="240" y="137.678" width="25" height="5" rx="2.5" transform="rotate(-45 240 137.678)" fill="#CB6262"/>
<rect x="257.678" y="141.213" width="25" height="5" rx="2.5" transform="rotate(-135 257.678 141.213)" fill="#CB6262"/>
<rect x="240" y="157.678" width="25" height="5" rx="2.5" transform="rotate(-45 240 157.678)" fill="#CB6262"/>
<rect x="257.678" y="161.213" width="25" height="5" rx="2.5" transform="rotate(-135 257.678 161.213)" fill="#CB6262"/>
<rect x="240" y="177.678" width="25" height="5" rx="2.5" transform="rotate(-45 240 177.678)" fill="#CB6262"/>
<rect x="257.678" y="181.213" width="25" height="5" rx="2.5" transform="rotate(-135 257.678 181.213)" fill="#CB6262"/>
<rect x="240" y="217.678" width="25" height="5" rx="2.5" transform="rotate(-45 240 217.678)" fill="#CB6262"/>
<rect x="257.678" y="221.213" width="25" height="5" rx="2.5" transform="rotate(-135 257.678 221.213)" fill="#CB6262"/>
<rect x="240" y="237.678" width="25" height="5" rx="2.5" transform="rotate(-45 240 237.678)" fill="#CB6262"/>
<rect x="257.678" y="241.213" width="25" height="5" rx="2.5" transform="rotate(-135 257.678 241.213)" fill="#CB6262"/>
<rect x="240" y="257.678" width="25" height="5" rx="2.5" transform="rotate(-45 240 257.678)" fill="#CB6262"/>
<rect x="257.678" y="261.213" width="25" height="5" rx="2.5" transform="rotate(-135 257.678 261.213)" fill="#CB6262"/>
<rect x="240" y="377.678" width="25" height="5" rx="2.5" transform="rotate(-45 240 377.678)" fill="#CB6262"/>
<rect x="257.678" y="381.213" width="25" height="5" rx="2.5" transform="rotate(-135 257.678 381.213)" fill="#CB6262"/>
<rect x="220" y="117.678" width="25" height="5" rx="2.5" transform="rotate(-45 220 117.678)" fill="#CB6262"/>
<rect x="237.678" y="121.213" width="25" height="5" rx="2.5" transform="rotate(-135 237.678 121.213)" fill="#CB6262"/>
<rect x="220" y="137.678" width="25" height="5" rx="2.5" transform="rotate(-45 220 137.678)" fill="#CB6262"/>
<rect x="237.678" y="141.213" width="25" height="5" rx="2.5" transform="rotate(-135 237.678 141.213)" fill="#CB6262"/>
<rect x="220" y="157.678" width="25" height="5" rx="2.5" transform="rotate(-45 220 157.678)" fill="#CB6262"/>
<rect x="237.678" y="161.213" width="25" height="5" rx="2.5" transform="rotate(-135 237.678 161.213)" fill="#CB6262"/>
<rect x="220" y="237.678" width="25" height="5" rx="2.5" transform="rotate(-45 220 237.678)" fill="#CB6262"/>
<rect x="237.678" y="241.213" width="25" height="5" rx="2.5" transform="rotate(-135 237.678 241.213)" fill="#CB6262"/>
<rect x="220" y="257.678" width="25" height="5" rx="2.5" transform="rotate(-45 220 257.678)" fill="#CB6262"/>
<rect x="237.678" y="261.213" width="25" height="5" rx="2.5" transform="rotate(-135 237.678 261.213)" fill="#CB6262"/>
<rect x="220" y="277.678" width="25" height="5" rx="2.5" transform="rotate(-45 220 277.678)" fill="#CB6262"/>
<rect x="237.678" y="281.213" width="25" height="5" rx="2.5" transform="rotate(-135 237.678 281.213)" fill="#CB6262"/>
<rect x="220" y="357.678" width="25" height="5" rx="2.5" transform="rotate(-45 220 357.678)" fill="#CB6262"/>
<rect x="237.678" y="361.213" width="25" height="5" rx="2.5" transform="rotate(-135 237.678 361.213)" fill="#CB6262"/>
<rect x="220" y="377.678" width="25" height="5" rx="2.5" transform="rotate(-45 220 377.678)" fill="#CB6262"/>
<rect x="237.678" y="381.213" width="25" height="5" rx="2.5" transform="rotate(-135 237.678 381.213)" fill="#CB6262"/>
<rect x="200" y="97.6777" width="25" height="5" rx="2.5" transform="rotate(-45 200 97.6777)" fill="#CB6262"/>
<rect x="217.678" y="101.213" width="25" height="5" rx="2.5" transform="rotate(-135 217.678 101.213)" fill="#CB6262"/>
<rect x="200" y="117.678" width="25" height="5" rx="2.5" transform="rotate(-45 200 117.678)" fill="#CB6262"/>
<rect x="217.678" y="121.213" width="25" height="5" rx="2.5" transform="rotate(-135 217.678 121.213)" fill="#CB6262"/>
<rect x="200" y="137.678" width="25" height="5" rx="2.5" transform="rotate(-45 200 137.678)" fill="#CB6262"/>
<rect x="217.678" y="141.213" width="25" height="5" rx="2.5" transform="rotate(-135 217.678 141.213)" fill="#CB6262"/>
<rect x="200" y="257.678" width="25" height="5" rx="2.5" transform="rotate(-45 200 257.678)" fill="#CB6262"/>
<rect x="217.678" y="261.213" width="25" height="5" rx="2.5" transform="rotate(-135 217.678 261.213)" fill="#CB6262"/>
<rect x="200" y="277.678" width="25" height="5" rx="2.5" transform="rotate(-45 200 277.678)" fill="#CB6262"/>
<rect x="217.678" y="281.213" width="25" height="5" rx="2.5" transform="rotate(-135 217.678 281.213)" fill="#CB6262"/>
<rect x="200" y="297.678" width="25" height="5" rx="2.5" transform="rotate(-45 200 297.678)" fill="#CB6262"/>
<rect x="217.678" y="301.213" width="25" height="5" rx="2.5" transform="rotate(-135 217.678 301.213)" fill="#CB6262"/>
<rect x="200" y="337.678" width="25" height="5" rx="2.5" transform="rotate(-45 200 337.678)" fill="#CB6262"/>
<rect x="217.678" y="341.213" width="25" height="5" rx="2.5" transform="rotate(-135 217.678 341.213)" fill="#CB6262"/>
<rect x="200" y="357.678" width="25" height="5" rx="2.5" transform="rotate(-45 200 357.678)" fill="#CB6262"/>
<rect x="217.678" y="361.213" width="25" height="5" rx="2.5" transform="rotate(-135 217.678 361.213)" fill="#CB6262"/>
<rect x="200" y="377.678" width="25" height="5" rx="2.5" transform="rotate(-45 200 377.678)" fill="#CB6262"/>
<rect x="217.678" y="381.213" width="25" height="5" rx="2.5" transform="rotate(-135 217.678 381.213)" fill="#CB6262"/>
<rect width="25" height="5" rx="2.5" transform="matrix(-0.707107 -0.707107 -0.707107 0.707107 201.213 117.678)" fill="#CB6262"/>
<rect width="25" height="5" rx="2.5" transform="matrix(0.707107 -0.707107 -0.707107 -0.707107 183.536 121.213)" fill="#CB6262"/>
<rect width="25" height="5" rx="2.5" transform="matrix(-0.707107 -0.707107 -0.707107 0.707107 201.213 197.678)" fill="#CB6262"/>
<rect width="25" height="5" rx="2.5" transform="matrix(0.707107 -0.707107 -0.707107 -0.707107 183.536 201.213)" fill="#CB6262"/>
<rect width="25" height="5" rx="2.5" transform="matrix(-0.707107 -0.707107 -0.707107 0.707107 201.213 277.678)" fill="#CB6262"/>
<rect width="25" height="5" rx="2.5" transform="matrix(0.707107 -0.707107 -0.707107 -0.707107 183.536 281.213)" fill="#CB6262"/>
<rect width="25" height="5" rx="2.5" transform="matrix(-0.707107 -0.707107 -0.707107 0.707107 201.213 297.678)" fill="#CB6262"/>
<rect width="25" height="5" rx="2.5" transform="matrix(0.707107 -0.707107 -0.707107 -0.707107 183.536 301.213)" fill="#CB6262"/>
<rect width="25" height="5" rx="2.5" transform="matrix(-0.707107 -0.707107 -0.707107 0.707107 201.213 317.678)" fill="#CB6262"/>
<rect width="25" height="5" rx="2.5" transform="matrix(0.707107 -0.707107 -0.707107 -0.707107 183.536 321.213)" fill="#CB6262"/>
<rect width="25" height="5" rx="2.5" transform="matrix(-0.707107 -0.707107 -0.707107 0.707107 201.213 337.678)" fill="#CB6262"/>
<rect width="25" height="5" rx="2.5" transform="matrix(0.707107 -0.707107 -0.707107 -0.707107 183.536 341.213)" fill="#CB6262"/>
<rect width="25" height="5" rx="2.5" transform="matrix(-0.707107 -0.707107 -0.707107 0.707107 201.213 357.678)" fill="#CB6262"/>
<rect width="25" height="5" rx="2.5" transform="matrix(0.707107 -0.707107 -0.707107 -0.707107 183.536 361.213)" fill="#CB6262"/>
<rect x="340" y="117.678" width="25" height="5" rx="2.5" transform="rotate(-45 340 117.678)" fill="#CB6262"/>
<rect x="357.678" y="121.213" width="25" height="5" rx="2.5" transform="rotate(-135 357.678 121.213)" fill="#CB6262"/>
<rect x="340" y="137.678" width="25" height="5" rx="2.5" transform="rotate(-45 340 137.678)" fill="#CB6262"/>
<rect x="357.678" y="141.213" width="25" height="5" rx="2.5" transform="rotate(-135 357.678 141.213)" fill="#CB6262"/>
<rect x="340" y="157.678" width="25" height="5" rx="2.5" transform="rotate(-45 340 157.678)" fill="#CB6262"/>
<rect x="357.678" y="161.213" width="25" height="5" rx="2.5" transform="rotate(-135 357.678 161.213)" fill="#CB6262"/>
<rect x="340" y="237.678" width="25" height="5" rx="2.5" transform="rotate(-45 340 237.678)" fill="#CB6262"/>
<rect x="357.678" y="241.213" width="25" height="5" rx="2.5" transform="rotate(-135 357.678 241.213)" fill="#CB6262"/>
<rect x="340" y="257.678" width="25" height="5" rx="2.5" transform="rotate(-45 340 257.678)" fill="#CB6262"/>
<rect x="357.678" y="261.213" width="25" height="5" rx="2.5" transform="rotate(-135 357.678 261.213)" fill="#CB6262"/>
<rect x="340" y="277.678" width="25" height="5" rx="2.5" transform="rotate(-45 340 277.678)" fill="#CB6262"/>
<rect x="357.678" y="281.213" width="25" height="5" rx="2.5" transform="rotate(-135 357.678 281.213)" fill="#CB6262"/>
</svg>
